<mxfile host="Electron" modified="2023-06-09T13:33:23.863Z" agent="Mozilla/5.0 (Windows NT 10.0; Win64; x64) AppleWebKit/537.36 (KHTML, like Gecko) draw.io/21.2.8 Chrome/112.0.5615.165 Electron/24.2.0 Safari/537.36" etag="p9E2M7rgPHQPisyZO7MK" version="21.2.8" type="device">
  <diagram id="C5RBs43oDa-KdzZeNtuy" name="Page-1">
    <mxGraphModel dx="1509" dy="888" grid="1" gridSize="10" guides="1" tooltips="1" connect="1" arrows="1" fold="1" page="1" pageScale="1" pageWidth="827" pageHeight="1169" math="0" shadow="0">
      <root>
        <mxCell id="WIyWlLk6GJQsqaUBKTNV-0" />
        <mxCell id="WIyWlLk6GJQsqaUBKTNV-1" parent="WIyWlLk6GJQsqaUBKTNV-0" />
        <mxCell id="LryfqSrHGQm6vB0Ml_Ms-0" value="CommonController" style="swimlane;fontStyle=1;align=center;verticalAlign=top;childLayout=stackLayout;horizontal=1;startSize=26;horizontalStack=0;resizeParent=1;resizeParentMax=0;resizeLast=0;collapsible=1;marginBottom=0;whiteSpace=wrap;html=1;" vertex="1" parent="WIyWlLk6GJQsqaUBKTNV-1">
          <mxGeometry x="181" y="534.5" width="240" height="120" as="geometry">
            <mxRectangle x="160" y="120" width="150" height="30" as="alternateBounds" />
          </mxGeometry>
        </mxCell>
        <mxCell id="LryfqSrHGQm6vB0Ml_Ms-1" value="- $simpleFilterService: SimpleFilterService" style="text;strokeColor=none;fillColor=none;align=left;verticalAlign=top;spacingLeft=4;spacingRight=4;overflow=hidden;rotatable=0;points=[[0,0.5],[1,0.5]];portConstraint=eastwest;whiteSpace=wrap;html=1;" vertex="1" parent="LryfqSrHGQm6vB0Ml_Ms-0">
          <mxGeometry y="26" width="240" height="26" as="geometry" />
        </mxCell>
        <mxCell id="LryfqSrHGQm6vB0Ml_Ms-2" value="" style="line;strokeWidth=1;fillColor=none;align=left;verticalAlign=middle;spacingTop=-1;spacingLeft=3;spacingRight=3;rotatable=0;labelPosition=right;points=[];portConstraint=eastwest;strokeColor=inherit;" vertex="1" parent="LryfqSrHGQm6vB0Ml_Ms-0">
          <mxGeometry y="52" width="240" height="8" as="geometry" />
        </mxCell>
        <mxCell id="LryfqSrHGQm6vB0Ml_Ms-5" value="+ store(Request): RedirectResponse" style="text;strokeColor=none;fillColor=none;align=left;verticalAlign=top;spacingLeft=4;spacingRight=4;overflow=hidden;rotatable=0;points=[[0,0.5],[1,0.5]];portConstraint=eastwest;whiteSpace=wrap;html=1;" vertex="1" parent="LryfqSrHGQm6vB0Ml_Ms-0">
          <mxGeometry y="60" width="240" height="30" as="geometry" />
        </mxCell>
        <mxCell id="LryfqSrHGQm6vB0Ml_Ms-3" value="+ import(Request): RedirectResponse" style="text;strokeColor=none;fillColor=none;align=left;verticalAlign=top;spacingLeft=4;spacingRight=4;overflow=hidden;rotatable=0;points=[[0,0.5],[1,0.5]];portConstraint=eastwest;whiteSpace=wrap;html=1;" vertex="1" parent="LryfqSrHGQm6vB0Ml_Ms-0">
          <mxGeometry y="90" width="240" height="30" as="geometry" />
        </mxCell>
        <mxCell id="LryfqSrHGQm6vB0Ml_Ms-6" value="CommonImport" style="swimlane;fontStyle=1;align=center;verticalAlign=top;childLayout=stackLayout;horizontal=1;startSize=26;horizontalStack=0;resizeParent=1;resizeParentMax=0;resizeLast=0;collapsible=1;marginBottom=0;whiteSpace=wrap;html=1;" vertex="1" parent="WIyWlLk6GJQsqaUBKTNV-1">
          <mxGeometry x="141" y="734.5" width="320" height="164" as="geometry">
            <mxRectangle x="620" y="520" width="130" height="30" as="alternateBounds" />
          </mxGeometry>
        </mxCell>
        <mxCell id="LryfqSrHGQm6vB0Ml_Ms-7" value="- $model: string" style="text;strokeColor=none;fillColor=none;align=left;verticalAlign=top;spacingLeft=4;spacingRight=4;overflow=hidden;rotatable=0;points=[[0,0.5],[1,0.5]];portConstraint=eastwest;whiteSpace=wrap;html=1;" vertex="1" parent="LryfqSrHGQm6vB0Ml_Ms-6">
          <mxGeometry y="26" width="320" height="26" as="geometry" />
        </mxCell>
        <mxCell id="LryfqSrHGQm6vB0Ml_Ms-48" value="- $grouped: Collection" style="text;strokeColor=none;fillColor=none;align=left;verticalAlign=top;spacingLeft=4;spacingRight=4;overflow=hidden;rotatable=0;points=[[0,0.5],[1,0.5]];portConstraint=eastwest;whiteSpace=wrap;html=1;" vertex="1" parent="LryfqSrHGQm6vB0Ml_Ms-6">
          <mxGeometry y="52" width="320" height="26" as="geometry" />
        </mxCell>
        <mxCell id="LryfqSrHGQm6vB0Ml_Ms-8" value="" style="line;strokeWidth=1;fillColor=none;align=left;verticalAlign=middle;spacingTop=-1;spacingLeft=3;spacingRight=3;rotatable=0;labelPosition=right;points=[];portConstraint=eastwest;strokeColor=inherit;" vertex="1" parent="LryfqSrHGQm6vB0Ml_Ms-6">
          <mxGeometry y="78" width="320" height="8" as="geometry" />
        </mxCell>
        <mxCell id="LryfqSrHGQm6vB0Ml_Ms-49" value="+ __construct(string $model, Collection &amp;amp;$grouped): void" style="text;strokeColor=none;fillColor=none;align=left;verticalAlign=top;spacingLeft=4;spacingRight=4;overflow=hidden;rotatable=0;points=[[0,0.5],[1,0.5]];portConstraint=eastwest;whiteSpace=wrap;html=1;" vertex="1" parent="LryfqSrHGQm6vB0Ml_Ms-6">
          <mxGeometry y="86" width="320" height="26" as="geometry" />
        </mxCell>
        <mxCell id="LryfqSrHGQm6vB0Ml_Ms-9" value="+ collection(Collection): void" style="text;strokeColor=none;fillColor=none;align=left;verticalAlign=top;spacingLeft=4;spacingRight=4;overflow=hidden;rotatable=0;points=[[0,0.5],[1,0.5]];portConstraint=eastwest;whiteSpace=wrap;html=1;" vertex="1" parent="LryfqSrHGQm6vB0Ml_Ms-6">
          <mxGeometry y="112" width="320" height="26" as="geometry" />
        </mxCell>
        <mxCell id="LryfqSrHGQm6vB0Ml_Ms-10" value="+ validateImport(Collection): Collection" style="text;strokeColor=none;fillColor=none;align=left;verticalAlign=top;spacingLeft=4;spacingRight=4;overflow=hidden;rotatable=0;points=[[0,0.5],[1,0.5]];portConstraint=eastwest;whiteSpace=wrap;html=1;" vertex="1" parent="LryfqSrHGQm6vB0Ml_Ms-6">
          <mxGeometry y="138" width="320" height="26" as="geometry" />
        </mxCell>
        <mxCell id="LryfqSrHGQm6vB0Ml_Ms-13" value="" style="endArrow=diamondThin;endFill=0;endSize=24;html=1;rounded=0;exitX=0.5;exitY=0;exitDx=0;exitDy=0;entryX=0.5;entryY=1;entryDx=0;entryDy=0;" edge="1" parent="WIyWlLk6GJQsqaUBKTNV-1" source="LryfqSrHGQm6vB0Ml_Ms-6" target="LryfqSrHGQm6vB0Ml_Ms-0">
          <mxGeometry width="160" relative="1" as="geometry">
            <mxPoint x="676" y="804.5" as="sourcePoint" />
            <mxPoint x="1166" y="874.5" as="targetPoint" />
          </mxGeometry>
        </mxCell>
        <mxCell id="LryfqSrHGQm6vB0Ml_Ms-15" value="UploadAllocator" style="swimlane;fontStyle=1;align=center;verticalAlign=top;childLayout=stackLayout;horizontal=1;startSize=26;horizontalStack=0;resizeParent=1;resizeParentMax=0;resizeLast=0;collapsible=1;marginBottom=0;whiteSpace=wrap;html=1;" vertex="1" parent="WIyWlLk6GJQsqaUBKTNV-1">
          <mxGeometry x="46" y="374.5" width="230" height="86" as="geometry">
            <mxRectangle x="620" y="520" width="130" height="30" as="alternateBounds" />
          </mxGeometry>
        </mxCell>
        <mxCell id="LryfqSrHGQm6vB0Ml_Ms-16" value="+ field: type" style="text;strokeColor=none;fillColor=none;align=left;verticalAlign=top;spacingLeft=4;spacingRight=4;overflow=hidden;rotatable=0;points=[[0,0.5],[1,0.5]];portConstraint=eastwest;whiteSpace=wrap;html=1;" vertex="1" parent="LryfqSrHGQm6vB0Ml_Ms-15">
          <mxGeometry y="26" width="230" height="26" as="geometry" />
        </mxCell>
        <mxCell id="LryfqSrHGQm6vB0Ml_Ms-17" value="" style="line;strokeWidth=1;fillColor=none;align=left;verticalAlign=middle;spacingTop=-1;spacingLeft=3;spacingRight=3;rotatable=0;labelPosition=right;points=[];portConstraint=eastwest;strokeColor=inherit;" vertex="1" parent="LryfqSrHGQm6vB0Ml_Ms-15">
          <mxGeometry y="52" width="230" height="8" as="geometry" />
        </mxCell>
        <mxCell id="LryfqSrHGQm6vB0Ml_Ms-18" value="+ getFileInfo(): array" style="text;strokeColor=none;fillColor=none;align=left;verticalAlign=top;spacingLeft=4;spacingRight=4;overflow=hidden;rotatable=0;points=[[0,0.5],[1,0.5]];portConstraint=eastwest;whiteSpace=wrap;html=1;" vertex="1" parent="LryfqSrHGQm6vB0Ml_Ms-15">
          <mxGeometry y="60" width="230" height="26" as="geometry" />
        </mxCell>
        <mxCell id="LryfqSrHGQm6vB0Ml_Ms-20" value="FileSystem" style="swimlane;fontStyle=1;align=center;verticalAlign=top;childLayout=stackLayout;horizontal=1;startSize=26;horizontalStack=0;resizeParent=1;resizeParentMax=0;resizeLast=0;collapsible=1;marginBottom=0;whiteSpace=wrap;html=1;" vertex="1" parent="WIyWlLk6GJQsqaUBKTNV-1">
          <mxGeometry x="482" y="40" width="300" height="268" as="geometry">
            <mxRectangle x="620" y="520" width="130" height="30" as="alternateBounds" />
          </mxGeometry>
        </mxCell>
        <mxCell id="LryfqSrHGQm6vB0Ml_Ms-21" value="- FIRSTDIR: string" style="text;strokeColor=none;fillColor=none;align=left;verticalAlign=top;spacingLeft=4;spacingRight=4;overflow=hidden;rotatable=0;points=[[0,0.5],[1,0.5]];portConstraint=eastwest;whiteSpace=wrap;html=1;" vertex="1" parent="LryfqSrHGQm6vB0Ml_Ms-20">
          <mxGeometry y="26" width="300" height="26" as="geometry" />
        </mxCell>
        <mxCell id="LryfqSrHGQm6vB0Ml_Ms-25" value="- SIZE: int" style="text;strokeColor=none;fillColor=none;align=left;verticalAlign=top;spacingLeft=4;spacingRight=4;overflow=hidden;rotatable=0;points=[[0,0.5],[1,0.5]];portConstraint=eastwest;whiteSpace=wrap;html=1;" vertex="1" parent="LryfqSrHGQm6vB0Ml_Ms-20">
          <mxGeometry y="52" width="300" height="26" as="geometry" />
        </mxCell>
        <mxCell id="LryfqSrHGQm6vB0Ml_Ms-39" value="- $iFileSystemAllocator:&amp;nbsp;FileSystemAllocator" style="text;strokeColor=none;fillColor=none;align=left;verticalAlign=top;spacingLeft=4;spacingRight=4;overflow=hidden;rotatable=0;points=[[0,0.5],[1,0.5]];portConstraint=eastwest;whiteSpace=wrap;html=1;" vertex="1" parent="LryfqSrHGQm6vB0Ml_Ms-20">
          <mxGeometry y="78" width="300" height="26" as="geometry" />
        </mxCell>
        <mxCell id="LryfqSrHGQm6vB0Ml_Ms-22" value="" style="line;strokeWidth=1;fillColor=none;align=left;verticalAlign=middle;spacingTop=-1;spacingLeft=3;spacingRight=3;rotatable=0;labelPosition=right;points=[];portConstraint=eastwest;strokeColor=inherit;" vertex="1" parent="LryfqSrHGQm6vB0Ml_Ms-20">
          <mxGeometry y="104" width="300" height="8" as="geometry" />
        </mxCell>
        <mxCell id="LryfqSrHGQm6vB0Ml_Ms-23" value="+ initManufacturerSubDir(string $rootDir): int" style="text;strokeColor=none;fillColor=none;align=left;verticalAlign=top;spacingLeft=4;spacingRight=4;overflow=hidden;rotatable=0;points=[[0,0.5],[1,0.5]];portConstraint=eastwest;whiteSpace=wrap;html=1;" vertex="1" parent="LryfqSrHGQm6vB0Ml_Ms-20">
          <mxGeometry y="112" width="300" height="26" as="geometry" />
        </mxCell>
        <mxCell id="LryfqSrHGQm6vB0Ml_Ms-24" value="+ findFirstFreeKey(array): int" style="text;strokeColor=none;fillColor=none;align=left;verticalAlign=top;spacingLeft=4;spacingRight=4;overflow=hidden;rotatable=0;points=[[0,0.5],[1,0.5]];portConstraint=eastwest;whiteSpace=wrap;html=1;" vertex="1" parent="LryfqSrHGQm6vB0Ml_Ms-20">
          <mxGeometry y="138" width="300" height="26" as="geometry" />
        </mxCell>
        <mxCell id="LryfqSrHGQm6vB0Ml_Ms-27" value="+ getManufacturerDir(string, string, string): array" style="text;strokeColor=none;fillColor=none;align=left;verticalAlign=top;spacingLeft=4;spacingRight=4;overflow=hidden;rotatable=0;points=[[0,0.5],[1,0.5]];portConstraint=eastwest;whiteSpace=wrap;html=1;" vertex="1" parent="LryfqSrHGQm6vB0Ml_Ms-20">
          <mxGeometry y="164" width="300" height="26" as="geometry" />
        </mxCell>
        <mxCell id="LryfqSrHGQm6vB0Ml_Ms-28" value="+ getManufacturerSubDir(string, string, string): array" style="text;strokeColor=none;fillColor=none;align=left;verticalAlign=top;spacingLeft=4;spacingRight=4;overflow=hidden;rotatable=0;points=[[0,0.5],[1,0.5]];portConstraint=eastwest;whiteSpace=wrap;html=1;" vertex="1" parent="LryfqSrHGQm6vB0Ml_Ms-20">
          <mxGeometry y="190" width="300" height="26" as="geometry" />
        </mxCell>
        <mxCell id="LryfqSrHGQm6vB0Ml_Ms-40" value="+ allocateFile(): void" style="text;strokeColor=none;fillColor=none;align=left;verticalAlign=top;spacingLeft=4;spacingRight=4;overflow=hidden;rotatable=0;points=[[0,0.5],[1,0.5]];portConstraint=eastwest;whiteSpace=wrap;html=1;" vertex="1" parent="LryfqSrHGQm6vB0Ml_Ms-20">
          <mxGeometry y="216" width="300" height="26" as="geometry" />
        </mxCell>
        <mxCell id="LryfqSrHGQm6vB0Ml_Ms-42" value="+ setAllocator(FileSystemAllocator): void" style="text;strokeColor=none;fillColor=none;align=left;verticalAlign=top;spacingLeft=4;spacingRight=4;overflow=hidden;rotatable=0;points=[[0,0.5],[1,0.5]];portConstraint=eastwest;whiteSpace=wrap;html=1;" vertex="1" parent="LryfqSrHGQm6vB0Ml_Ms-20">
          <mxGeometry y="242" width="300" height="26" as="geometry" />
        </mxCell>
        <mxCell id="LryfqSrHGQm6vB0Ml_Ms-29" value="ImportAllocator" style="swimlane;fontStyle=1;align=center;verticalAlign=top;childLayout=stackLayout;horizontal=1;startSize=26;horizontalStack=0;resizeParent=1;resizeParentMax=0;resizeLast=0;collapsible=1;marginBottom=0;whiteSpace=wrap;html=1;" vertex="1" parent="WIyWlLk6GJQsqaUBKTNV-1">
          <mxGeometry x="315" y="374.5" width="230" height="86" as="geometry">
            <mxRectangle x="620" y="520" width="130" height="30" as="alternateBounds" />
          </mxGeometry>
        </mxCell>
        <mxCell id="LryfqSrHGQm6vB0Ml_Ms-30" value="+ field: type" style="text;strokeColor=none;fillColor=none;align=left;verticalAlign=top;spacingLeft=4;spacingRight=4;overflow=hidden;rotatable=0;points=[[0,0.5],[1,0.5]];portConstraint=eastwest;whiteSpace=wrap;html=1;" vertex="1" parent="LryfqSrHGQm6vB0Ml_Ms-29">
          <mxGeometry y="26" width="230" height="26" as="geometry" />
        </mxCell>
        <mxCell id="LryfqSrHGQm6vB0Ml_Ms-31" value="" style="line;strokeWidth=1;fillColor=none;align=left;verticalAlign=middle;spacingTop=-1;spacingLeft=3;spacingRight=3;rotatable=0;labelPosition=right;points=[];portConstraint=eastwest;strokeColor=inherit;" vertex="1" parent="LryfqSrHGQm6vB0Ml_Ms-29">
          <mxGeometry y="52" width="230" height="8" as="geometry" />
        </mxCell>
        <mxCell id="LryfqSrHGQm6vB0Ml_Ms-32" value="+ getFileInfo(): array" style="text;strokeColor=none;fillColor=none;align=left;verticalAlign=top;spacingLeft=4;spacingRight=4;overflow=hidden;rotatable=0;points=[[0,0.5],[1,0.5]];portConstraint=eastwest;whiteSpace=wrap;html=1;" vertex="1" parent="LryfqSrHGQm6vB0Ml_Ms-29">
          <mxGeometry y="60" width="230" height="26" as="geometry" />
        </mxCell>
        <mxCell id="LryfqSrHGQm6vB0Ml_Ms-34" value="Паттерн Стратегия" style="text;html=1;strokeColor=none;fillColor=none;align=center;verticalAlign=middle;whiteSpace=wrap;rounded=0;fontSize=22;fontFamily=Verdana;" vertex="1" parent="WIyWlLk6GJQsqaUBKTNV-1">
          <mxGeometry width="240" height="80" as="geometry" />
        </mxCell>
        <mxCell id="LryfqSrHGQm6vB0Ml_Ms-35" value="«interface»&lt;br&gt;&lt;b&gt;FileSystemAllocator&lt;/b&gt;" style="html=1;whiteSpace=wrap;" vertex="1" parent="WIyWlLk6GJQsqaUBKTNV-1">
          <mxGeometry x="122" y="134.5" width="200" height="79" as="geometry" />
        </mxCell>
        <mxCell id="LryfqSrHGQm6vB0Ml_Ms-37" value="Extends" style="endArrow=block;endSize=16;endFill=0;html=1;rounded=0;" edge="1" parent="WIyWlLk6GJQsqaUBKTNV-1" source="LryfqSrHGQm6vB0Ml_Ms-15" target="LryfqSrHGQm6vB0Ml_Ms-35">
          <mxGeometry width="160" relative="1" as="geometry">
            <mxPoint x="516" y="314.5" as="sourcePoint" />
            <mxPoint x="676" y="314.5" as="targetPoint" />
          </mxGeometry>
        </mxCell>
        <mxCell id="LryfqSrHGQm6vB0Ml_Ms-38" value="Extends" style="endArrow=block;endSize=16;endFill=0;html=1;rounded=0;" edge="1" parent="WIyWlLk6GJQsqaUBKTNV-1" source="LryfqSrHGQm6vB0Ml_Ms-29" target="LryfqSrHGQm6vB0Ml_Ms-35">
          <mxGeometry width="160" relative="1" as="geometry">
            <mxPoint x="516" y="314.5" as="sourcePoint" />
            <mxPoint x="676" y="314.5" as="targetPoint" />
          </mxGeometry>
        </mxCell>
        <mxCell id="LryfqSrHGQm6vB0Ml_Ms-41" value="1" style="endArrow=open;html=1;endSize=12;startArrow=diamondThin;startSize=14;startFill=0;edgeStyle=orthogonalEdgeStyle;align=left;verticalAlign=bottom;rounded=0;" edge="1" parent="WIyWlLk6GJQsqaUBKTNV-1" source="LryfqSrHGQm6vB0Ml_Ms-35" target="LryfqSrHGQm6vB0Ml_Ms-20">
          <mxGeometry x="-1" y="3" relative="1" as="geometry">
            <mxPoint x="270" y="154.5" as="sourcePoint" />
            <mxPoint x="430" y="154.5" as="targetPoint" />
          </mxGeometry>
        </mxCell>
        <mxCell id="LryfqSrHGQm6vB0Ml_Ms-43" value="Use" style="endArrow=open;endSize=12;dashed=1;html=1;rounded=0;" edge="1" parent="WIyWlLk6GJQsqaUBKTNV-1" source="LryfqSrHGQm6vB0Ml_Ms-0" target="LryfqSrHGQm6vB0Ml_Ms-15">
          <mxGeometry width="160" relative="1" as="geometry">
            <mxPoint x="72" y="574.5" as="sourcePoint" />
            <mxPoint x="232" y="574.5" as="targetPoint" />
          </mxGeometry>
        </mxCell>
        <mxCell id="LryfqSrHGQm6vB0Ml_Ms-45" value="Use" style="endArrow=open;endSize=12;dashed=1;html=1;rounded=0;" edge="1" parent="WIyWlLk6GJQsqaUBKTNV-1" source="LryfqSrHGQm6vB0Ml_Ms-0" target="LryfqSrHGQm6vB0Ml_Ms-29">
          <mxGeometry width="160" relative="1" as="geometry">
            <mxPoint x="252" y="504.5" as="sourcePoint" />
            <mxPoint x="412" y="504.5" as="targetPoint" />
          </mxGeometry>
        </mxCell>
        <mxCell id="LryfqSrHGQm6vB0Ml_Ms-47" value="1" style="endArrow=open;html=1;endSize=12;startArrow=diamondThin;startSize=14;startFill=0;edgeStyle=orthogonalEdgeStyle;align=left;verticalAlign=bottom;rounded=0;" edge="1" parent="WIyWlLk6GJQsqaUBKTNV-1" source="LryfqSrHGQm6vB0Ml_Ms-0" target="LryfqSrHGQm6vB0Ml_Ms-20">
          <mxGeometry x="-1" y="3" relative="1" as="geometry">
            <mxPoint x="572" y="734.5" as="sourcePoint" />
            <mxPoint x="732" y="734.5" as="targetPoint" />
          </mxGeometry>
        </mxCell>
      </root>
    </mxGraphModel>
  </diagram>
</mxfile>
